<svg height="1066.8" viewBox="0 0 465.93332 1066.8" width="465.93332" xmlns="http://www.w3.org/2000/svg"><g transform="matrix(.13333333 0 0 -.13333333 0 1066.8)"><path d="m5 1149.38c-.01172 895.27 164.219 2124.36 637.809 2913.4 473.591 789.04 504.151 1016.65 504.151 1502.21s-553.581 1047.84-553.581 1539.96 514.531 891.07 1153.881 891.07c639.36 0 1153.9-398.95 1153.9-891.07s-553.59-1054.4-553.59-1539.96 30.56-713.17 504.15-1502.21 637.82-2018.13 637.81-2913.4c0-632.009-777.9-1144.38-1742.27-1144.38-964.35 0-1742.26 512.371-1742.26 1144.38" fill="#fff" fill-opacity="0"/><path d="m5 1149.38c-.01172 895.27 164.219 2124.36 637.809 2913.4 473.591 789.04 504.151 1016.65 504.151 1502.21s-553.581 1047.84-553.581 1539.96 514.531 891.07 1153.881 891.07c639.36 0 1153.9-398.95 1153.9-891.07s-553.59-1054.4-553.59-1539.96 30.56-713.17 504.15-1502.21 637.82-2018.13 637.81-2913.4c0-632.009-777.9-1144.38-1742.27-1144.38-964.35 0-1742.26 512.371-1742.26 1144.38" fill="none" stroke="#b3b3b3" stroke-miterlimit="10" stroke-width="10"/><path d="m5 1149.38c-.01172 895.27 164.219 2124.36 637.809 2913.4 473.591 789.04 504.151 1016.65 504.151 1502.21s-553.581 1047.84-553.581 1539.96 514.531 891.07 1153.881 891.07c639.36 0 1153.9-398.95 1153.9-891.07s-553.59-1054.4-553.59-1539.96 30.56-713.17 504.15-1502.21 637.82-2018.13 637.81-2913.4c0-632.009-777.9-1144.38-1742.27-1144.38-964.35 0-1742.26 512.371-1742.26 1144.38" fill="#fff" fill-opacity="0"/><path d="m5 1149.38c-.01172 895.27 164.219 2124.36 637.809 2913.4 473.591 789.04 504.151 1016.65 504.151 1502.21s-553.581 1047.84-553.581 1539.96 514.531 891.07 1153.881 891.07c639.36 0 1153.9-398.95 1153.9-891.07s-553.59-1054.4-553.59-1539.96 30.56-713.17 504.15-1502.21 637.82-2018.13 637.81-2913.4c0-632.009-777.9-1144.38-1742.27-1144.38-964.35 0-1742.26 512.371-1742.26 1144.38z" fill="none" stroke="#b3b3b3" stroke-miterlimit="10" stroke-width="10"/></g></svg>