<svg xmlns="http://www.w3.org/2000/svg" width="275.937" height="41.948" viewBox="0 0 275.937 41.948">
  <path id="Pfad_1" data-name="Pfad 1" d="M74.088,12.18H61.778a.312.312,0,0,0-.31.312v2.642a.311.311,0,0,0,.31.31h4.139a.311.311,0,0,1,.31.312V29.784a.311.311,0,0,0,.312.31h2.788a.312.312,0,0,0,.312-.31V15.755a.31.31,0,0,1,.312-.309h4.138a.312.312,0,0,0,.312-.312V12.492a.312.312,0,0,0-.312-.312m7.923,5.4a4.3,4.3,0,0,0-2.874,1.067.309.309,0,0,1-.511-.235v-5.92a.312.312,0,0,0-.312-.31H75.6a.312.312,0,0,0-.31.31V29.783a.311.311,0,0,0,.31.312h2.74a.312.312,0,0,0,.312-.312V23.4c0-2.061,1.055-2.945,2.331-2.945,1.5,0,2.258.957,2.258,2.626v6.706a.311.311,0,0,0,.312.312h2.788a.312.312,0,0,0,.312-.312V22.611c0-3.166-1.742-5.031-4.638-5.031m14.472,4.883H91.545a.312.312,0,0,1-.267-.475,3.2,3.2,0,0,1,2.759-1.463,2.879,2.879,0,0,1,2.725,1.487.312.312,0,0,1-.279.452M95.333,17.7a6.5,6.5,0,0,0-7.666,6.934,6.557,6.557,0,0,0,12.006,2.709.312.312,0,0,0-.11-.427L97.43,25.646a.306.306,0,0,0-.423.12A3.248,3.248,0,0,1,94.135,27.4a3.139,3.139,0,0,1-3.1-1.8.314.314,0,0,1,.287-.437h8.715a.312.312,0,0,0,.31-.312v-.916A6.149,6.149,0,0,0,95.333,17.7m28.649,7.386-2.557-1.349a.312.312,0,0,0-.421.135,5.438,5.438,0,0,1-4.938,3.054,5.684,5.684,0,0,1-5.743-5.791,5.712,5.712,0,0,1,5.816-5.84,5.176,5.176,0,0,1,4.7,2.71.31.31,0,0,0,.435.108l2.46-1.572a.314.314,0,0,0,.1-.43,9.191,9.191,0,0,0-16.895,5.023,8.907,8.907,0,0,0,9.2,9.2,9.092,9.092,0,0,0,7.973-4.825.314.314,0,0,0-.13-.426m11.874-7.263h-2.74a.31.31,0,0,0-.31.31v6.389c0,2.06-1.056,2.944-2.331,2.944-1.5,0-2.258-.957-2.258-2.6V18.136a.311.311,0,0,0-.312-.31h-2.789a.31.31,0,0,0-.31.31v7.174c0,3.166,1.742,5.031,4.637,5.031a4.3,4.3,0,0,0,2.875-1.067.309.309,0,0,1,.511.234v.276a.311.311,0,0,0,.31.312h2.715a.31.31,0,0,0,.312-.31V18.136a.312.312,0,0,0-.312-.31m4.691-5.645h-2.74a.31.31,0,0,0-.31.312V29.784a.311.311,0,0,0,.31.31h2.74a.312.312,0,0,0,.312-.31V12.492a.312.312,0,0,0-.312-.312m21.192,5.645H159a.31.31,0,0,0-.312.31v6.389c0,2.06-1.055,2.944-2.331,2.944-1.5,0-2.258-.957-2.258-2.6V18.136a.312.312,0,0,0-.312-.31h-6.27a.31.31,0,0,1-.312-.312V13.639a.31.31,0,0,0-.46-.273l-2.74,1.5a.311.311,0,0,0-.162.273v2.376a.31.31,0,0,1-.31.312H142.07a.312.312,0,0,0-.31.31v2.4a.311.311,0,0,0,.31.31h1.465a.311.311,0,0,1,.309.312V24.77c0,4,1.277,5.324,5.179,5.324h.492V27.262a.309.309,0,0,0-.3-.312c-1.784-.032-2-.39-2-2.206v-3.59a.312.312,0,0,1,.312-.312h3.17v4.466c0,3.166,1.742,5.031,4.638,5.031a4.3,4.3,0,0,0,2.874-1.067.309.309,0,0,1,.511.234v.276a.311.311,0,0,0,.312.312h2.715a.31.31,0,0,0,.31-.31V18.136a.311.311,0,0,0-.31-.31m9.4,0H170.1a3.558,3.558,0,0,0-2.833,1.16.311.311,0,0,1-.553-.192v-.657a.312.312,0,0,0-.312-.31H163.69a.31.31,0,0,0-.31.31V29.784a.311.311,0,0,0,.31.31h2.74a.31.31,0,0,0,.312-.31V24.3c0-2.281.785-3.215,2.577-3.215h1.823a.312.312,0,0,0,.313-.31V18.136a.312.312,0,0,0-.312-.31m9.46,4.637h-4.938a.311.311,0,0,1-.267-.475,3.2,3.2,0,0,1,2.759-1.463,2.879,2.879,0,0,1,2.725,1.487.312.312,0,0,1-.279.452m-1.15-4.761a6.505,6.505,0,0,0-7.667,6.934A6.574,6.574,0,0,0,183.4,27.91a.891.891,0,0,0-.251-1.307l-1.139-.679a.873.873,0,0,0-1.138.215,3.26,3.26,0,0,1-2.622,1.257,3.138,3.138,0,0,1-3.1-1.8.314.314,0,0,1,.287-.437h8.715a.31.31,0,0,0,.31-.31v-.917a6.152,6.152,0,0,0-5.011-6.234m15.508-5.521h-2.8a.307.307,0,0,0-.307.308v17.3a.308.308,0,0,0,.307.307h2.8a.307.307,0,0,0,.307-.307v-17.3a.307.307,0,0,0-.307-.308m8.864,5.4a4.238,4.238,0,0,0-3.074,1.263.181.181,0,0,1-.312-.126v-.4a.493.493,0,0,0-.494-.493h-2.352a.493.493,0,0,0-.493.493V29.6a.493.493,0,0,0,.493.493h2.377a.493.493,0,0,0,.493-.493V23.4c0-2.061,1.055-2.945,2.331-2.945,1.5,0,2.258.957,2.258,2.6V29.6a.493.493,0,0,0,.493.493h2.425a.493.493,0,0,0,.494-.493V22.609c0-3.165-1.743-5.029-4.638-5.029m11.756,4.858c-1.84-.368-2.552-.563-2.552-1.1s.49-1.005,1.6-1.005a2.354,2.354,0,0,1,2.149,1.119.29.29,0,0,0,.368.122l2.408-1.015a.295.295,0,0,0,.144-.415c-.908-1.555-2.452-2.558-5.044-2.558-3.042-.05-5.031,1.791-5.031,3.852,0,2.626,2.209,3.387,4.418,3.78,1.423.27,2.626.465,2.626,1.128,0,.589-.589,1.1-1.693,1.1a2.57,2.57,0,0,1-2.463-1.411.3.3,0,0,0-.376-.156l-2.662,1.036a.3.3,0,0,0-.166.4c.923,1.975,2.684,3.027,5.52,3.027,3.533.05,5.2-2.307,5.2-4.1,0-2.65-2.382-3.386-4.443-3.8m46.946-4.613h-1.688a.309.309,0,0,1-.31-.31V13.63a.306.306,0,0,0-.453-.268l-.007,0-1.618.886-1.126.616a.306.306,0,0,0-.159.268v2.379a.309.309,0,0,1-.309.309h-1.47a.306.306,0,0,0-.306.307v2.407a.305.305,0,0,0,.306.3h1.469a.309.309,0,0,1,.31.31V24.77c0,3.085.767,4.575,2.905,5.1a7.637,7.637,0,0,0,1.98.228h.784V27.257a.3.3,0,0,0-.3-.306c-.067,0-.129,0-.192-.006l-.126,0c-.055,0-.1-.007-.156-.011l-.127-.008-.12-.014c-.043-.006-.088-.01-.129-.017s-.071-.013-.106-.02l-.113-.022c-.035-.009-.066-.02-.1-.03s-.063-.018-.092-.028-.061-.028-.091-.041a.713.713,0,0,1-.072-.033c-.028-.014-.05-.032-.075-.047s-.044-.028-.063-.043a.861.861,0,0,1-.066-.061c-.015-.017-.034-.031-.05-.049a.87.87,0,0,1-.052-.073.689.689,0,0,1-.042-.057c-.015-.027-.029-.057-.042-.086s-.023-.044-.033-.067a1.039,1.039,0,0,1-.035-.108c-.008-.023-.017-.044-.023-.07-.011-.044-.021-.092-.03-.139l-.014-.065c-.007-.042-.011-.091-.018-.136l-.012-.1,0-.051q-.032-.412-.029-.825v-3.59a.309.309,0,0,1,.309-.312h1.691a.306.306,0,0,0,.306-.3V18.132a.309.309,0,0,0-.309-.309m-29.825,0h-6.478a.306.306,0,0,1-.306-.306V13.63a.306.306,0,0,0-.453-.268l-2.751,1.506a.306.306,0,0,0-.158.268v2.384a.306.306,0,0,1-.306.306h-1.475a.306.306,0,0,0-.306.306v2.407a.305.305,0,0,0,.306.3h1.475a.306.306,0,0,1,.306.306V24.77c0,4,1.611,5.324,4.884,5.324h.475a.309.309,0,0,0,.309-.308v-2.53a.3.3,0,0,0-.3-.306c-1.788-.031-2.009-.388-2.009-2.206v-3.6a.306.306,0,0,1,.306-.306h3.416v8.951a.3.3,0,0,0,.3.3H232.7a.3.3,0,0,0,.3-.3V18.126a.3.3,0,0,0-.3-.3m21.181,0H251.14a.309.309,0,0,0-.31.309v6.39c0,2.06-1.055,2.944-2.331,2.944-1.5,0-2.258-.957-2.258-2.6V18.136a.309.309,0,0,0-.31-.31h-6.277a.306.306,0,0,1-.3-.306V13.63a.306.306,0,0,0-.453-.268l-2.751,1.506a.306.306,0,0,0-.159.268v2.384a.306.306,0,0,1-.306.306h-1.474a.306.306,0,0,0-.306.306v2.407a.305.305,0,0,0,.306.3h1.474a.306.306,0,0,1,.306.306V24.77c0,4,1.611,5.324,4.884,5.324h.476a.308.308,0,0,0,.309-.308v-2.53a.3.3,0,0,0-.3-.306c-1.787-.031-2.008-.388-2.008-2.206v-3.6a.305.305,0,0,1,.3-.306h3.176v4.466c0,3.166,1.742,5.031,4.638,5.031a4.3,4.3,0,0,0,2.875-1.068.309.309,0,0,1,.51.234v.278a.311.311,0,0,0,.31.31h2.717a.309.309,0,0,0,.309-.309V18.135a.309.309,0,0,0-.309-.31M272.2,22.463h-4.941a.312.312,0,0,1-.266-.475,3.2,3.2,0,0,1,2.761-1.463,2.881,2.881,0,0,1,2.726,1.488.312.312,0,0,1-.28.451M271.05,17.7a6.5,6.5,0,0,0-7.666,6.934,6.557,6.557,0,0,0,12.008,2.708.309.309,0,0,0-.11-.425l-2.133-1.273a.306.306,0,0,0-.423.12,3.249,3.249,0,0,1-2.871,1.629,3.136,3.136,0,0,1-3.1-1.8.313.313,0,0,1,.286-.436h8.716a.309.309,0,0,0,.31-.309v-.917A6.153,6.153,0,0,0,271.05,17.7m-40.038-5.5a1.947,1.947,0,1,0,1.682.547,1.954,1.954,0,0,0-1.682-.547M22.566,37.653a2.03,2.03,0,1,0,2.029,2.03,2.033,2.033,0,0,0-2.029-2.03m-10.756.762a1.27,1.27,0,1,0,1.27,1.27,1.27,1.27,0,0,0-1.27-1.27m21.149-1.16a2.429,2.429,0,1,0,2.429,2.428,2.432,2.432,0,0,0-2.429-2.428M20.536,2.774a2.03,2.03,0,1,0,2.03-2.03,2.033,2.033,0,0,0-2.03,2.03m-8.727,1.45a1.45,1.45,0,1,0-1.449-1.45,1.452,1.452,0,0,0,1.449,1.45m21.15,1.161a2.61,2.61,0,1,0-2.609-2.61,2.613,2.613,0,0,0,2.609,2.61M38.21,28.09a2.9,2.9,0,1,0,2.9,2.9,2.9,2.9,0,0,0-2.9-2.9M6.5,29.829a1.161,1.161,0,0,0,0,2.32,1.161,1.161,0,0,0,0-2.32m12.164,1.16a1.56,1.56,0,1,0-1.56,1.56,1.562,1.562,0,0,0,1.56-1.56m8.991-2.32a2.32,2.32,0,1,0,2.32,2.32,2.322,2.322,0,0,0-2.32-2.32M6.5,12.934a1.161,1.161,0,0,0,0-2.32,1.161,1.161,0,0,0,0,2.32m31.706,1.74a2.9,2.9,0,1,0-2.9-2.9,2.9,2.9,0,0,0,2.9,2.9m-21.1-1.16a1.74,1.74,0,1,0-1.74-1.74,1.742,1.742,0,0,0,1.74,1.74m10.551.58a2.32,2.32,0,1,0-2.32-2.32,2.322,2.322,0,0,0,2.32,2.32m-5.094,5.238A2.03,2.03,0,1,0,24.6,21.361a2.033,2.033,0,0,0-2.029-2.029m13,2.029a2.609,2.609,0,1,0-2.609,2.609,2.613,2.613,0,0,0,2.609-2.609m7.965-2.9a2.9,2.9,0,1,0,2.9,2.9,2.9,2.9,0,0,0-2.9-2.9M1.235,20.2a1.161,1.161,0,0,0,0,2.32,1.161,1.161,0,0,0,0-2.32m10.575-.109a1.27,1.27,0,1,0,1.27,1.27,1.27,1.27,0,0,0-1.27-1.27" transform="translate(-0.125 -0.164)" fill-rule="evenodd"/>
</svg>
